# File produced by Open Asset Import Library (http://www.assimp.sf.net)
# (assimp v4.1.0)

mtllib lvkpawf6dhhn.mtl

# 14 vertex positions
v  312.4286193847656 -4.757180249725934e-08 0.02141761407256126
v  312.4286193847656 -2.184831799922904e-07 6.883360862731934
v  312.4286193847656 -3.89394529065612e-07 10.03101539611816
v  314.9630126953125 -3.89394529065612e-07 10.03101539611816
v  314.9630126953125 -4.757180249725934e-08 0.02141761407256126
v  310.0346374511719 -2.18483151570581e-07 5.220635890960693
v  310.0346374511719 -3.893945006439026e-07 8.368290901184082
v  312.4286193847656 4.999995231628418 0.02141761407256126
v  314.9630126953125 4.99999475479126 10.03101539611816
v  312.4286193847656 4.99999475479126 10.03101539611816
v  312.4286193847656 4.99999475479126 6.883360862731934
v  314.9630126953125 4.999995231628418 0.02141761407256126
v  310.0346374511719 4.99999475479126 8.368290901184082
v  310.0346374511719 4.99999475479126 5.220635890960693

# 0 UV coordinates

# 18 vertex normals
vn 0.002600189065560699 0.9999966621398926 0
vn 0 1 3.415028615449955e-08
vn 0 1 3.414896454501104e-08
vn -3.771248557882245e-08 1 5.429819083246912e-08
vn -3.771242518268991e-08 1 5.429821925417855e-08
vn 0 -1 -7.518815436924342e-08
vn 0.003073867177590728 -0.9999953508377075 0
vn 0 -1 0
vn 0 -0.9999999403953552 0
vn 0 0 -1
vn -0.9999999403953552 0 0
vn -1 0 0
vn 0 0 1
vn 1 0 0
vn 0.570451021194458 0 -0.8213316798210144
vn 0.5704502463340759 0 -0.8213320970535278
vn -0.5704507827758789 0 0.8213317394256592
vn -0.5704506635665894 0 0.8213318586349487

# Mesh '<STL_BINARY>' with 24 faces
g <STL_BINARY>
usemtl DefaultMaterial
f  1//1 2//1 3//1
f  3//2 4//2 1//2
f  1//3 4//3 5//3
f  2//4 6//4 7//4
f  7//5 3//5 2//5
f  8//6 9//6 10//6
f  10//7 11//7 8//7
f  8//8 12//8 9//8
f  11//8 10//8 13//8
f  13//9 14//9 11//9
f  4//10 3//10 10//10
f  10//10 9//10 4//10
f  5//11 4//11 9//11
f  9//12 12//12 5//12
f  1//13 5//13 12//13
f  12//13 8//13 1//13
f  2//14 1//14 8//14
f  8//14 11//14 2//14
f  7//14 6//14 14//14
f  14//14 13//14 7//14
f  3//15 7//15 13//15
f  13//16 10//16 3//16
f  6//17 2//17 11//17
f  11//18 14//18 6//18

