# Blender 3.4.1
# www.blender.org
mtllib Rock.mtl
o Cube
v 1.130317 -0.848853 -0.432822
v 1.021208 -0.846905 0.685653
v 0.514024 -0.846620 -0.406950
v 0.419497 -0.767863 0.625114
v 0.315051 2.133541 -0.551839
v 1.176460 2.835740 -0.355905
v 0.264447 2.745253 -0.365868
v 1.208014 2.247242 -0.772608
v 1.059129 1.317770 0.839336
v 1.040999 2.180617 0.892908
v 1.097246 2.538405 0.785458
v 0.321652 2.822354 0.147738
v 0.299653 2.610001 0.415118
v 1.124591 2.883100 0.418741
v 1.147863 1.437568 0.511363
v 0.309494 0.918389 0.875122
v 0.431250 1.440214 0.882405
v 0.242928 1.956999 0.647601
v 0.796758 -0.890739 -0.504196
v 0.656242 2.286323 -0.766762
v 0.660555 2.609145 0.755037
v 0.690922 -0.822978 0.647453
v 0.719571 3.037109 -0.478155
v 0.680644 3.026356 0.403464
v 0.376913 -0.114746 0.723644
v 0.669959 -0.550227 0.711980
v 1.015548 -0.006670 0.788107
v 0.702588 2.315840 0.817418
v 0.868827 2.255861 0.839267
vn -0.0522 -0.1494 0.9874
vn -0.9968 -0.0523 -0.0604
vn 0.9961 -0.0193 0.0863
vn -0.5155 0.8562 -0.0340
vn 0.9649 0.0040 0.2625
vn -0.5871 0.2491 0.7702
vn -0.6118 0.5750 0.5433
vn -0.6114 0.1318 0.7803
vn 0.2078 0.4519 -0.8675
vn 0.0738 -0.0946 -0.9928
vn 0.0216 -0.9992 0.0327
vn -0.1694 -0.9842 0.0505
vn -0.4343 -0.0833 -0.8969
vn -0.4976 0.2895 -0.8177
vn 0.1267 0.6763 0.7257
vn 0.3574 0.9339 -0.0010
vn -0.1769 -0.1825 0.9672
vn 0.0054 -0.0770 0.9970
vn -0.0715 0.2365 0.9690
vn -0.0139 -0.0027 0.9999
vn -0.3660 0.1812 0.9128
vt 1.364690 -1.640445
vt 0.844704 -1.640445
vt 0.844704 1.364690
vt 0.749443 -1.598815
vt 0.054785 -1.598815
vt 0.749443 0.054785
vt 1.252490 -1.592379
vt 0.287581 1.252490
vt 0.287581 -1.592379
vt 0.167846 -1.518877
vt 0.194761 0.167846
vt 0.194761 -1.518877
vt 1.336989 1.662518
vt 0.105003 1.662518
vt 1.288862 2.143093
vt 0.890183 2.143093
vt 0.890183 1.288862
vt 1.177944 2.110958
vt 0.108964 1.177944
vt 0.108964 2.110958
vt 1.683403 1.753340
vt 0.896908 1.753340
vt -0.134036 0.089402
vt 0.343369 0.869562
vt -0.068437 1.426457
vt 0.001678 1.799955
vt 0.864382 1.799955
vt 0.482318 2.208167
vt 0.111061 0.482318
vt 0.111061 2.208167
vt 0.300802 1.982124
vt 0.080509 1.982124
vt 0.259827 2.138002
vt 0.866298 2.138002
vt 0.866298 0.259827
vt 0.411185 0.739072
vt -0.069524 0.054556
vt 0.092173 0.054556
vt 0.200291 0.700565
vt -0.146666 0.700565
vt 0.147435 1.204774
vt 0.582864 1.314406
vt 0.582864 -1.661826
vt 0.452038 1.734942
vt 0.435820 1.858132
vt 0.466187 0.145507
vt 0.466187 -1.573991
vt 0.494836 2.286095
vt 0.494836 1.271115
vt 0.455909 2.275343
vt 0.455909 0.389496
vt 0.069316 -0.865760
vt 0.152178 -0.865760
vt 0.445224 -1.301241
vt -0.027987 -0.809436
vt 0.750155 -0.809436
vt 0.000000 0.000000
vt -0.030000 0.625299
s 0
usemtl Clif_rock
f 2/4/1 27/56/1 26/54/1 22/47/1
f 4/10/2 25/52/2 16/37/2 18/41/2 13/31/2 12/28/2 7/18/2 5/13/2 3/7/2
f 1/1/3 8/21/3 6/15/3 14/33/3 11/26/3 10/25/3 15/36/3 9/23/3 27/55/3 2/5/3
f 23/49/4 7/19/4 12/29/4 24/51/4
f 9/23/5 15/36/5 10/25/5
f 18/41/6 28/57/6 21/45/6 13/31/6
f 24/50/7 12/30/7 13/32/7 21/45/7
f 17/40/8 18/41/8 16/37/8
f 23/48/9 6/16/9 8/22/9 20/44/9
f 19/43/10 20/44/10 8/22/10 1/2/10
f 19/42/11 1/3/11 2/6/11 22/46/11
f 3/8/12 19/42/12 22/46/12 4/11/12
f 3/9/13 5/14/13 20/44/13 19/43/13
f 7/20/14 23/48/14 20/44/14 5/14/14
f 14/34/15 24/50/15 21/45/15 11/27/15
f 6/17/16 23/49/16 24/51/16 14/35/16
f 22/47/17 26/54/17 25/53/17 4/12/17
f 26/54/18 27/56/18 9/24/18 17/39/18 16/38/18 25/53/18
f 10/25/19 11/27/19 21/45/19 28/57/19 29/58/19
f 10/25/20 29/58/20 17/40/20 9/24/20
f 17/40/21 29/58/21 28/57/21 18/41/21
